<svg xmlns="http://www.w3.org/2000/svg" xmlns:xlink="http://www.w3.org/1999/xlink" width="1920" height="1594" viewBox="0 0 1920 1594">
  <defs>
    <linearGradient id="linear-gradient" x1="0.5" x2="0.5" y2="1" gradientUnits="objectBoundingBox">
      <stop offset="0" stop-color="#5c5959"/>
      <stop offset="1" stop-color="#fff"/>
      <stop offset="1" stop-color="gray"/>
    </linearGradient>
    <clipPath id="clip-Web_1920_3">
      <rect width="1920" height="1594"/>
    </clipPath>
  </defs>
  <g id="Web_1920_3" data-name="Web 1920 – 3" clip-path="url(#clip-Web_1920_3)">
    <rect width="1920" height="1594" fill="#fff"/>
    <g id="Group_16" data-name="Group 16" transform="translate(196.5 11)">
      <path id="Path_2" data-name="Path 2" d="M0,0H1920V243H0Z" transform="translate(-196 -11)" opacity="0.233" fill="url(#linear-gradient)"/>
      <g id="menu" transform="translate(1639.5 86.5)">
        <g id="menu-2" data-name="menu" transform="translate(-34.5 -34.5)">
          <g id="menu-3" data-name="menu">
            <rect id="Rectangle_4" data-name="Rectangle 4" width="69" height="69" transform="translate(69 69) rotate(180)" opacity="0"/>
            <rect id="Rectangle_5" data-name="Rectangle 5" width="52" height="6" rx="2.797" transform="translate(8 31)"/>
            <rect id="Rectangle_6" data-name="Rectangle 6" width="52" height="6" rx="2.797" transform="translate(8 46)"/>
            <rect id="Rectangle_7" data-name="Rectangle 7" width="52" height="6" rx="2.797" transform="translate(8 17)"/>
          </g>
        </g>
      </g>
      <g id="Group_4" data-name="Group 4" transform="translate(-177 -55)">
        <text id="Wild_Thyme_Projects" data-name="Wild Thyme Projects" transform="translate(31 152)" fill="#0031ff" font-size="36" font-family="Silom"><tspan x="0" y="0">Wild Thyme Projects</tspan></text>
        <g id="Group_3" data-name="Group 3" transform="translate(31 157.883)">
          <path id="Path_4" data-name="Path 4" d="M0,0H135.165" transform="translate(0 0)" fill="none" stroke="#0b30fb" stroke-width="3"/>
          <path id="Path_5" data-name="Path 5" d="M-19.282,0H112.85" transform="translate(178.601 0)" fill="none" stroke="#0b30fb" stroke-width="3"/>
          <path id="Path_6" data-name="Path 6" d="M-21.2,0H62.781" transform="translate(333.22 0)" fill="none" stroke="#0b30fb" stroke-width="3"/>
        </g>
      </g>
      <g id="Rectangle_13" data-name="Rectangle 13" transform="translate(-196 1309)" fill="#1d00ff" stroke="#707070" stroke-width="1">
        <rect width="1920" height="274" stroke="none"/>
        <rect x="0.5" y="0.5" width="1919" height="273" fill="none"/>
      </g>
      <line id="Line_8" data-name="Line 8" x2="1930.5" transform="translate(-206.5 1237.5)" fill="none" stroke="#e0ff71" stroke-width="5"/>
      <line id="Line_9" data-name="Line 9" x2="1920" transform="translate(-196 1182)" fill="none" stroke="#e0ff71" stroke-width="7"/>
      <g id="Group_10" data-name="Group 10" transform="translate(-71 -346)">
        <g id="Group_8" data-name="Group 8" transform="translate(1351 401)">
          <g id="Group_9" data-name="Group 9" transform="translate(0 0)">
            <rect id="Rectangle_12" data-name="Rectangle 12" width="286" height="64" fill="#e0ff71"/>
          </g>
        </g>
        <g id="icon_action_search_24px" data-name="icon/action/search_24px" transform="translate(1587 410)">
          <rect id="Boundary" width="46" height="46" fill="none"/>
          <path id="_Color" data-name=" ↳Color" d="M37.508,41l0,0L25.786,29.3V27.451l-.633-.656a15.258,15.258,0,1,1,1.641-1.641l.656.633H29.3L41,37.508,37.51,41ZM15.237,4.688A10.549,10.549,0,1,0,25.786,15.237,10.561,10.561,0,0,0,15.237,4.688Z" transform="translate(2 2)"/>
        </g>
      </g>
      <path id="Path_7" data-name="Path 7" d="M1941,0" transform="translate(-195.5 1021.5)" fill="none" stroke="#707070" stroke-width="1"/>
      <path id="Path_15" data-name="Path 15" d="M0,0H1739" transform="translate(-106 331.5)" fill="none" stroke="#000" stroke-width="3"/>
      <line id="Line_14" data-name="Line 14" x2="1739" transform="translate(-105.5 296)" fill="none" stroke="#000" stroke-width="5"/>
    </g>
    <g id="icon_action_search_24px-2" data-name="icon/action/search_24px" transform="translate(817.5 127)">
      <rect id="Boundary-2" data-name="Boundary" width="46" height="46" fill="none"/>
    </g>
  </g>
</svg>
